<?xml version="1.0" encoding="UTF-8"?> <svg xmlns="http://www.w3.org/2000/svg" id="Layer_1" data-name="Layer 1" viewBox="0 0 320.87 59.01"><defs><style>.cls-1{fill:#0e3d61;}</style></defs><title>Artboard 2 copy</title><polygon class="cls-1" points="307.53 20.65 301.4 41.99 294.27 20.65 284.84 20.65 277.64 41.92 271.51 20.65 262.09 20.65 272.66 53.77 281.75 53.77 289.35 31.15 297.09 53.77 306.05 53.77 316.41 20.66 316.41 20.65 307.53 20.65"></polygon><path class="cls-1" d="M199.35,12.44a9.79,9.79,0,0,1,2.83.34V5.24a12.9,12.9,0,0,0-4.44-.68c-7.34,0-12.05,4.85-12.05,12.32v3.77h-5.52v7.68h5.52V53.77h9V28.33h7.48V20.65h-7.48V17c0-3.71,2.69-4.58,4.64-4.58"></path><polygon class="cls-1" points="218.36 53.77 218.36 5.03 209.41 5.03 209.41 20.65 209.4 20.65 209.4 28.33 209.41 28.33 209.41 53.77 218.36 53.77"></polygon><path class="cls-1" d="M175.61,20.52a19.44,19.44,0,0,0-2.08-.14c-2.83,0-7.41.81-9.43,5.19V20.65h-8.68V53.77h9V38.63c0-7.14,4-9.36,8.55-9.36a13.59,13.59,0,0,1,2.69.27Z"></path><path class="cls-1" d="M125.25,33.44a7.16,7.16,0,0,1,7.4-6.53c5.12,0,7.28,3.23,7.41,6.53Zm23.63,3.37c0-10.64-6.13-17.17-16.36-17.17-8.48,0-16.29,6.87-16.29,17.44,0,11.17,8,17.7,17.1,17.7,8.14,0,13.39-4.78,15.08-10.5l-7.47-2.22c-1.08,3-3.37,5-7.54,5a8.07,8.07,0,0,1-8.35-7.54h23.69c0-.14.14-1.48.14-2.76"></path><polygon class="cls-1" points="114.88 20.65 105.46 20.65 97.58 42.87 89.37 20.65 79.54 20.65 93.07 53.77 102.02 53.77 114.88 20.65"></polygon><rect class="cls-1" x="64.98" y="5.03" width="8.95" height="48.74"></rect><path class="cls-1" d="M45.39,9.81a5.52,5.52,0,1,0,5.52-5.58,5.53,5.53,0,0,0-5.52,5.58"></path><rect class="cls-1" x="46.47" y="20.65" width="8.95" height="33.12"></rect><path class="cls-1" d="M38.73,17.42C37.65,12,33.21,5,21.63,5,12.61,5,5,11.5,5,20c0,7.2,4.92,12.12,12.52,13.66L24.19,35c3.7.74,5.79,2.9,5.79,5.66,0,3.36-2.76,5.85-7.74,5.85-6.74,0-10-4.24-10.44-9L3.19,39.84c.74,6.8,6.32,14.94,19,14.94,11.11,0,17.23-7.4,17.23-14.74,0-6.73-4.64-12.39-13.33-14.07l-6.66-1.28c-3.5-.67-5.18-2.76-5.18-5.38,0-3.17,3-6.06,7.47-6.06,6.06,0,8.21,4.1,8.68,6.73Z"></path><path class="cls-1" d="M242.5,46.64c-4.38,0-8.42-3.24-8.42-9.43s4-9.42,8.42-9.42,8.41,3.16,8.41,9.42-4,9.43-8.41,9.43m0-27c-9.9,0-17.37,7.34-17.37,17.57s7.47,17.57,17.37,17.57,17.37-7.4,17.37-17.57-7.48-17.57-17.37-17.57"></path></svg>
