<?xml version="1.0" encoding="utf-8"?>
<!-- Generator: Adobe Illustrator 26.4.1, SVG Export Plug-In . SVG Version: 6.00 Build 0)  -->
<svg version="1.1" id="Layer_1" xmlns="http://www.w3.org/2000/svg" xmlns:xlink="http://www.w3.org/1999/xlink" x="0px" y="0px"
	 viewBox="0 0 297.6 396.9" style="enable-background:new 0 0 297.6 396.9;" xml:space="preserve">
<style type="text/css" >
	.st0{fill:#0E3D61;}
</style>
<path class="st0" d="M276.6,106.3c-8-40-41-92-127-92c-67,0-123.5,48-123.5,111c0,53.5,36.5,90,93,101.5l49.5,10
	c27.5,5.5,43,21.5,43,42c0,25-20.5,43.5-57.5,43.5c-50,0-74.5-31.5-77.5-66.5l-64,17c5.5,50.5,47,111,141,111
	c82.5,0,128-55,128-109.5c0-50-34.5-92-99-104.5l-49.5-9.5c-26-5-38.5-20.5-38.5-40c0-23.5,22-45,55.5-45c45,0,61,30.5,64.5,50
	L276.6,106.3z"/>
</svg>
